<svg width="24" height="25" viewBox="0 0 24 25" fill="none" xmlns="http://www.w3.org/2000/svg">
<path fill-rule="evenodd" clip-rule="evenodd" d="M12.7071 8.18291C12.5261 8.00194 12.2761 7.89001 12 7.89001C11.7239 7.89001 11.4739 8.00194 11.2929 8.18291L7.29289 12.1829C6.90237 12.5734 6.90237 13.2066 7.29289 13.5971C7.68342 13.9876 8.31658 13.9876 8.70711 13.5971L11 11.3042V16.89C11 17.4423 11.4477 17.89 12 17.89C12.5523 17.89 13 17.4423 13 16.89V11.3042L15.2929 13.5971C15.6834 13.9876 16.3166 13.9876 16.7071 13.5971C17.0976 13.2066 17.0976 12.5734 16.7071 12.1829L12.7071 8.18291ZM12 2.89001C17.5228 2.89001 22 7.36717 22 12.89C22 18.4129 17.5228 22.89 12 22.89C6.47715 22.89 2 18.4129 2 12.89C2 7.36717 6.47715 2.89001 12 2.89001Z" fill="#455571"/>
</svg>
