<svg width="32" height="33" viewBox="0 0 32 33" fill="none" xmlns="http://www.w3.org/2000/svg">
<path fill-rule="evenodd" clip-rule="evenodd" d="M16 19.5567C14.5272 19.5567 13.3333 18.3628 13.3333 16.89C13.3333 15.4172 14.5272 14.2233 16 14.2233C17.4728 14.2233 18.6667 15.4172 18.6667 16.89C18.6667 18.3628 17.4728 19.5567 16 19.5567ZM25.3333 19.5567C23.8606 19.5567 22.6667 18.3628 22.6667 16.89C22.6667 15.4172 23.8606 14.2233 25.3333 14.2233C26.8061 14.2233 28 15.4172 28 16.89C28 18.3628 26.8061 19.5567 25.3333 19.5567ZM6.66667 19.5567C5.19391 19.5567 4 18.3628 4 16.89C4 15.4172 5.19391 14.2233 6.66667 14.2233C8.13943 14.2233 9.33333 15.4172 9.33333 16.89C9.33333 18.3628 8.13943 19.5567 6.66667 19.5567Z" fill="#A6A6A6"/>
</svg>
